<svg width="30" height="35" viewBox="0 0 30 35" fill="none" xmlns="http://www.w3.org/2000/svg">
<path d="M27.8571 2.14282H2.13616C0.957589 2.14282 0 3.1138 0 4.30577V29.9799C0 31.1718 0.957589 32.1428 2.13616 32.1428H27.8571C29.0357 32.1428 30 31.1718 30 29.9799V4.30577C30 3.1138 29.0357 2.14282 27.8571 2.14282ZM9.06696 27.8571H4.62054V13.5401H9.07366V27.8571H9.06696ZM6.84375 11.5848C5.41741 11.5848 4.26562 10.4263 4.26562 9.00666C4.26562 7.58702 5.41741 6.42854 6.84375 6.42854C8.26339 6.42854 9.42187 7.58702 9.42187 9.00666C9.42187 10.433 8.27009 11.5848 6.84375 11.5848ZM25.7344 27.8571H21.2879V20.8928C21.2879 19.2321 21.2545 17.0959 18.9777 17.0959C16.6607 17.0959 16.3058 18.904 16.3058 20.7723V27.8571H11.8594V13.5401H16.125V15.4955H16.1853C16.7812 14.3705 18.2344 13.1852 20.3973 13.1852C24.8973 13.1852 25.7344 16.1517 25.7344 20.0089V27.8571Z" fill="white"/>
</svg>
