<svg width="49" height="49" viewBox="0 0 49 49" fill="none" xmlns="http://www.w3.org/2000/svg">
  <path
    d="M42.7401 0.560059H6.26006C3.11366 0.560059 0.560059 3.11366 0.560059 6.26006V42.7401C0.560059 45.8865 3.11366 48.4401 6.26006 48.4401H42.7401C45.8865 48.4401 48.4401 45.8865 48.4401 42.7401V6.26006C48.4401 3.11366 45.8865 0.560059 42.7401 0.560059ZM15.3801 18.8001V40.4601H8.54006V18.8001H15.3801ZM8.54006 12.4959C8.54006 10.8999 9.90806 9.68006 11.9601 9.68006C14.0121 9.68006 15.3003 10.8999 15.3801 12.4959C15.3801 14.0919 14.1033 15.3801 11.9601 15.3801C9.90806 15.3801 8.54006 14.0919 8.54006 12.4959ZM40.4601 40.4601H33.6201C33.6201 40.4601 33.6201 29.9037 33.6201 29.0601C33.6201 26.7801 32.4801 24.5001 29.6301 24.4545H29.5389C26.7801 24.4545 25.6401 26.8029 25.6401 29.0601C25.6401 30.0975 25.6401 40.4601 25.6401 40.4601H18.8001V18.8001H25.6401V21.7185C25.6401 21.7185 27.8403 18.8001 32.2635 18.8001C36.7893 18.8001 40.4601 21.9123 40.4601 28.2165V40.4601Z"
    fill="#1D4ED8" />
</svg>