<svg width="57" height="57" viewBox="0 0 57 57" fill="none" xmlns="http://www.w3.org/2000/svg">
  <g clip-path="url(#clip0_185_536)">
    <path
      d="M52.25 17.8956V40.375C52.2501 42.1924 51.5557 43.9411 50.309 45.2634C49.0622 46.5856 47.3572 47.3815 45.543 47.4881L45.125 47.5H11.875C10.0576 47.5001 8.3089 46.8057 6.98663 45.559C5.66436 44.3122 4.86849 42.6073 4.76188 40.793L4.75 40.375V17.8956L27.1819 32.851L27.4574 33.0078C27.782 33.1664 28.1386 33.2488 28.5 33.2488C28.8614 33.2488 29.218 33.1664 29.5426 33.0078L29.8181 32.851L52.25 17.8956Z"
      fill="#1D4ED8" />
    <path
      d="M45.125 9.5C47.69 9.5 49.9391 10.8538 51.1931 12.8891L28.5 28.0179L5.80688 12.8891C6.40237 11.9219 7.22052 11.1112 8.19307 10.5245C9.16561 9.93786 10.2644 9.59228 11.3976 9.51662L11.875 9.5H45.125Z"
      fill="#1D4ED8" />
  </g>
  <defs>
    <clipPath id="clip0_185_536">
      <rect width="57" height="57" fill="white" />
    </clipPath>
  </defs>
</svg>